<svg xmlns="http://www.w3.org/2000/svg" xmlns:xlink="http://www.w3.org/1999/xlink" width="800px" height="800px" viewBox="0 0 800 800" enable-background="new 0 0 800 800" x="0px" y="0px"><rect x="0" y="0" width="800" height="800" fill="#ffffff"/><g transform="translate(29, 29)"><g transform="translate(237.04 0) scale(0.2963 0.2963)"><g style="fill: rgb(0, 0, 0);"><rect width="100" height="100"/></g></g><g transform="translate(266.67 0) scale(0.2963 0.2963)"><g style="fill: rgb(0, 0, 0);"><rect width="100" height="100"/></g></g><g transform="translate(296.3 0) scale(0.2963 0.2963)"><g style="fill: rgb(0, 0, 0);"><rect width="100" height="100"/></g></g><g transform="translate(325.93 0) scale(0.2963 0.2963)"><g style="fill: rgb(0, 0, 0);"><rect width="100" height="100"/></g></g><g transform="translate(414.82 0) scale(0.2963 0.2963)"><g style="fill: rgb(0, 0, 0);"><rect width="100" height="100"/></g></g><g transform="translate(325.93 29.63) scale(0.2963 0.2963)"><g style="fill: rgb(0, 0, 0);"><rect width="100" height="100"/></g></g><g transform="translate(355.56 29.63) scale(0.2963 0.2963)"><g style="fill: rgb(0, 0, 0);"><rect width="100" height="100"/></g></g><g transform="translate(266.67 59.26) scale(0.2963 0.2963)"><g style="fill: rgb(0, 0, 0);"><rect width="100" height="100"/></g></g><g transform="translate(325.93 59.26) scale(0.2963 0.2963)"><g style="fill: rgb(0, 0, 0);"><rect width="100" height="100"/></g></g><g transform="translate(385.19 59.26) scale(0.2963 0.2963)"><g style="fill: rgb(0, 0, 0);"><rect width="100" height="100"/></g></g><g transform="translate(414.82 59.26) scale(0.2963 0.2963)"><g style="fill: rgb(0, 0, 0);"><rect width="100" height="100"/></g></g><g transform="translate(444.45 59.26) scale(0.2963 0.2963)"><g style="fill: rgb(0, 0, 0);"><rect width="100" height="100"/></g></g><g transform="translate(296.3 88.89) scale(0.2963 0.2963)"><g style="fill: rgb(0, 0, 0);"><rect width="100" height="100"/></g></g><g transform="translate(325.93 88.89) scale(0.2963 0.2963)"><g style="fill: rgb(0, 0, 0);"><rect width="100" height="100"/></g></g><g transform="translate(355.56 88.89) scale(0.2963 0.2963)"><g style="fill: rgb(0, 0, 0);"><rect width="100" height="100"/></g></g><g transform="translate(385.19 88.89) scale(0.2963 0.2963)"><g style="fill: rgb(0, 0, 0);"><rect width="100" height="100"/></g></g><g transform="translate(474.08 88.89) scale(0.2963 0.2963)"><g style="fill: rgb(0, 0, 0);"><rect width="100" height="100"/></g></g><g transform="translate(296.3 118.52) scale(0.2963 0.2963)"><g style="fill: rgb(0, 0, 0);"><rect width="100" height="100"/></g></g><g transform="translate(325.93 118.52) scale(0.2963 0.2963)"><g style="fill: rgb(0, 0, 0);"><rect width="100" height="100"/></g></g><g transform="translate(355.56 118.52) scale(0.2963 0.2963)"><g style="fill: rgb(0, 0, 0);"><rect width="100" height="100"/></g></g><g transform="translate(474.08 118.52) scale(0.2963 0.2963)"><g style="fill: rgb(0, 0, 0);"><rect width="100" height="100"/></g></g><g transform="translate(266.67 148.15) scale(0.2963 0.2963)"><g style="fill: rgb(0, 0, 0);"><rect width="100" height="100"/></g></g><g transform="translate(325.93 148.15) scale(0.2963 0.2963)"><g style="fill: rgb(0, 0, 0);"><rect width="100" height="100"/></g></g><g transform="translate(385.19 148.15) scale(0.2963 0.2963)"><g style="fill: rgb(0, 0, 0);"><rect width="100" height="100"/></g></g><g transform="translate(414.82 148.15) scale(0.2963 0.2963)"><g style="fill: rgb(0, 0, 0);"><rect width="100" height="100"/></g></g><g transform="translate(237.04 177.78) scale(0.2963 0.2963)"><g style="fill: rgb(0, 0, 0);"><rect width="100" height="100"/></g></g><g transform="translate(296.3 177.78) scale(0.2963 0.2963)"><g style="fill: rgb(0, 0, 0);"><rect width="100" height="100"/></g></g><g transform="translate(355.56 177.78) scale(0.2963 0.2963)"><g style="fill: rgb(0, 0, 0);"><rect width="100" height="100"/></g></g><g transform="translate(414.82 177.78) scale(0.2963 0.2963)"><g style="fill: rgb(0, 0, 0);"><rect width="100" height="100"/></g></g><g transform="translate(474.08 177.78) scale(0.2963 0.2963)"><g style="fill: rgb(0, 0, 0);"><rect width="100" height="100"/></g></g><g transform="translate(237.04 207.41) scale(0.2963 0.2963)"><g style="fill: rgb(0, 0, 0);"><rect width="100" height="100"/></g></g><g transform="translate(266.67 207.41) scale(0.2963 0.2963)"><g style="fill: rgb(0, 0, 0);"><rect width="100" height="100"/></g></g><g transform="translate(385.19 207.41) scale(0.2963 0.2963)"><g style="fill: rgb(0, 0, 0);"><rect width="100" height="100"/></g></g><g transform="translate(444.45 207.41) scale(0.2963 0.2963)"><g style="fill: rgb(0, 0, 0);"><rect width="100" height="100"/></g></g><g transform="translate(474.08 207.41) scale(0.2963 0.2963)"><g style="fill: rgb(0, 0, 0);"><rect width="100" height="100"/></g></g><g transform="translate(0 237.04) scale(0.2963 0.2963)"><g style="fill: rgb(0, 0, 0);"><rect width="100" height="100"/></g></g><g transform="translate(29.63 237.04) scale(0.2963 0.2963)"><g style="fill: rgb(0, 0, 0);"><rect width="100" height="100"/></g></g><g transform="translate(88.89 237.04) scale(0.2963 0.2963)"><g style="fill: rgb(0, 0, 0);"><rect width="100" height="100"/></g></g><g transform="translate(118.52 237.04) scale(0.2963 0.2963)"><g style="fill: rgb(0, 0, 0);"><rect width="100" height="100"/></g></g><g transform="translate(177.78 237.04) scale(0.2963 0.2963)"><g style="fill: rgb(0, 0, 0);"><rect width="100" height="100"/></g></g><g transform="translate(266.67 237.04) scale(0.2963 0.2963)"><g style="fill: rgb(0, 0, 0);"><rect width="100" height="100"/></g></g><g transform="translate(325.93 237.04) scale(0.2963 0.2963)"><g style="fill: rgb(0, 0, 0);"><rect width="100" height="100"/></g></g><g transform="translate(355.56 237.04) scale(0.2963 0.2963)"><g style="fill: rgb(0, 0, 0);"><rect width="100" height="100"/></g></g><g transform="translate(414.82 237.04) scale(0.2963 0.2963)"><g style="fill: rgb(0, 0, 0);"><rect width="100" height="100"/></g></g><g transform="translate(474.08 237.04) scale(0.2963 0.2963)"><g style="fill: rgb(0, 0, 0);"><rect width="100" height="100"/></g></g><g transform="translate(533.34 237.04) scale(0.2963 0.2963)"><g style="fill: rgb(0, 0, 0);"><rect width="100" height="100"/></g></g><g transform="translate(711.12 237.04) scale(0.2963 0.2963)"><g style="fill: rgb(0, 0, 0);"><rect width="100" height="100"/></g></g><g transform="translate(59.26 266.67) scale(0.2963 0.2963)"><g style="fill: rgb(0, 0, 0);"><rect width="100" height="100"/></g></g><g transform="translate(296.3 266.67) scale(0.2963 0.2963)"><g style="fill: rgb(0, 0, 0);"><rect width="100" height="100"/></g></g><g transform="translate(325.93 266.67) scale(0.2963 0.2963)"><g style="fill: rgb(0, 0, 0);"><rect width="100" height="100"/></g></g><g transform="translate(385.19 266.67) scale(0.2963 0.2963)"><g style="fill: rgb(0, 0, 0);"><rect width="100" height="100"/></g></g><g transform="translate(414.82 266.67) scale(0.2963 0.2963)"><g style="fill: rgb(0, 0, 0);"><rect width="100" height="100"/></g></g><g transform="translate(444.45 266.67) scale(0.2963 0.2963)"><g style="fill: rgb(0, 0, 0);"><rect width="100" height="100"/></g></g><g transform="translate(503.71 266.67) scale(0.2963 0.2963)"><g style="fill: rgb(0, 0, 0);"><rect width="100" height="100"/></g></g><g transform="translate(562.97 266.67) scale(0.2963 0.2963)"><g style="fill: rgb(0, 0, 0);"><rect width="100" height="100"/></g></g><g transform="translate(592.6 266.67) scale(0.2963 0.2963)"><g style="fill: rgb(0, 0, 0);"><rect width="100" height="100"/></g></g><g transform="translate(622.23 266.67) scale(0.2963 0.2963)"><g style="fill: rgb(0, 0, 0);"><rect width="100" height="100"/></g></g><g transform="translate(651.86 266.67) scale(0.2963 0.2963)"><g style="fill: rgb(0, 0, 0);"><rect width="100" height="100"/></g></g><g transform="translate(681.49 266.67) scale(0.2963 0.2963)"><g style="fill: rgb(0, 0, 0);"><rect width="100" height="100"/></g></g><g transform="translate(59.26 296.3) scale(0.2963 0.2963)"><g style="fill: rgb(0, 0, 0);"><rect width="100" height="100"/></g></g><g transform="translate(118.52 296.3) scale(0.2963 0.2963)"><g style="fill: rgb(0, 0, 0);"><rect width="100" height="100"/></g></g><g transform="translate(148.15 296.3) scale(0.2963 0.2963)"><g style="fill: rgb(0, 0, 0);"><rect width="100" height="100"/></g></g><g transform="translate(177.78 296.3) scale(0.2963 0.2963)"><g style="fill: rgb(0, 0, 0);"><rect width="100" height="100"/></g></g><g transform="translate(207.41 296.3) scale(0.2963 0.2963)"><g style="fill: rgb(0, 0, 0);"><rect width="100" height="100"/></g></g><g transform="translate(266.67 296.3) scale(0.2963 0.2963)"><g style="fill: rgb(0, 0, 0);"><rect width="100" height="100"/></g></g><g transform="translate(325.93 296.3) scale(0.2963 0.2963)"><g style="fill: rgb(0, 0, 0);"><rect width="100" height="100"/></g></g><g transform="translate(385.19 296.3) scale(0.2963 0.2963)"><g style="fill: rgb(0, 0, 0);"><rect width="100" height="100"/></g></g><g transform="translate(444.45 296.3) scale(0.2963 0.2963)"><g style="fill: rgb(0, 0, 0);"><rect width="100" height="100"/></g></g><g transform="translate(533.34 296.3) scale(0.2963 0.2963)"><g style="fill: rgb(0, 0, 0);"><rect width="100" height="100"/></g></g><g transform="translate(562.97 296.3) scale(0.2963 0.2963)"><g style="fill: rgb(0, 0, 0);"><rect width="100" height="100"/></g></g><g transform="translate(622.23 296.3) scale(0.2963 0.2963)"><g style="fill: rgb(0, 0, 0);"><rect width="100" height="100"/></g></g><g transform="translate(711.12 296.3) scale(0.2963 0.2963)"><g style="fill: rgb(0, 0, 0);"><rect width="100" height="100"/></g></g><g transform="translate(29.63 325.93) scale(0.2963 0.2963)"><g style="fill: rgb(0, 0, 0);"><rect width="100" height="100"/></g></g><g transform="translate(59.26 325.93) scale(0.2963 0.2963)"><g style="fill: rgb(0, 0, 0);"><rect width="100" height="100"/></g></g><g transform="translate(88.89 325.93) scale(0.2963 0.2963)"><g style="fill: rgb(0, 0, 0);"><rect width="100" height="100"/></g></g><g transform="translate(118.52 325.93) scale(0.2963 0.2963)"><g style="fill: rgb(0, 0, 0);"><rect width="100" height="100"/></g></g><g transform="translate(237.04 325.93) scale(0.2963 0.2963)"><g style="fill: rgb(0, 0, 0);"><rect width="100" height="100"/></g></g><g transform="translate(444.45 325.93) scale(0.2963 0.2963)"><g style="fill: rgb(0, 0, 0);"><rect width="100" height="100"/></g></g><g transform="translate(474.08 325.93) scale(0.2963 0.2963)"><g style="fill: rgb(0, 0, 0);"><rect width="100" height="100"/></g></g><g transform="translate(562.97 325.93) scale(0.2963 0.2963)"><g style="fill: rgb(0, 0, 0);"><rect width="100" height="100"/></g></g><g transform="translate(622.23 325.93) scale(0.2963 0.2963)"><g style="fill: rgb(0, 0, 0);"><rect width="100" height="100"/></g></g><g transform="translate(651.86 325.93) scale(0.2963 0.2963)"><g style="fill: rgb(0, 0, 0);"><rect width="100" height="100"/></g></g><g transform="translate(681.49 325.93) scale(0.2963 0.2963)"><g style="fill: rgb(0, 0, 0);"><rect width="100" height="100"/></g></g><g transform="translate(711.12 325.93) scale(0.2963 0.2963)"><g style="fill: rgb(0, 0, 0);"><rect width="100" height="100"/></g></g><g transform="translate(59.26 355.56) scale(0.2963 0.2963)"><g style="fill: rgb(0, 0, 0);"><rect width="100" height="100"/></g></g><g transform="translate(88.89 355.56) scale(0.2963 0.2963)"><g style="fill: rgb(0, 0, 0);"><rect width="100" height="100"/></g></g><g transform="translate(118.52 355.56) scale(0.2963 0.2963)"><g style="fill: rgb(0, 0, 0);"><rect width="100" height="100"/></g></g><g transform="translate(148.15 355.56) scale(0.2963 0.2963)"><g style="fill: rgb(0, 0, 0);"><rect width="100" height="100"/></g></g><g transform="translate(177.78 355.56) scale(0.2963 0.2963)"><g style="fill: rgb(0, 0, 0);"><rect width="100" height="100"/></g></g><g transform="translate(266.67 355.56) scale(0.2963 0.2963)"><g style="fill: rgb(0, 0, 0);"><rect width="100" height="100"/></g></g><g transform="translate(296.3 355.56) scale(0.2963 0.2963)"><g style="fill: rgb(0, 0, 0);"><rect width="100" height="100"/></g></g><g transform="translate(355.56 355.56) scale(0.2963 0.2963)"><g style="fill: rgb(0, 0, 0);"><rect width="100" height="100"/></g></g><g transform="translate(444.45 355.56) scale(0.2963 0.2963)"><g style="fill: rgb(0, 0, 0);"><rect width="100" height="100"/></g></g><g transform="translate(503.71 355.56) scale(0.2963 0.2963)"><g style="fill: rgb(0, 0, 0);"><rect width="100" height="100"/></g></g><g transform="translate(533.34 355.56) scale(0.2963 0.2963)"><g style="fill: rgb(0, 0, 0);"><rect width="100" height="100"/></g></g><g transform="translate(711.12 355.56) scale(0.2963 0.2963)"><g style="fill: rgb(0, 0, 0);"><rect width="100" height="100"/></g></g><g transform="translate(0 385.19) scale(0.2963 0.2963)"><g style="fill: rgb(0, 0, 0);"><rect width="100" height="100"/></g></g><g transform="translate(237.04 385.19) scale(0.2963 0.2963)"><g style="fill: rgb(0, 0, 0);"><rect width="100" height="100"/></g></g><g transform="translate(266.67 385.19) scale(0.2963 0.2963)"><g style="fill: rgb(0, 0, 0);"><rect width="100" height="100"/></g></g><g transform="translate(296.3 385.19) scale(0.2963 0.2963)"><g style="fill: rgb(0, 0, 0);"><rect width="100" height="100"/></g></g><g transform="translate(325.93 385.19) scale(0.2963 0.2963)"><g style="fill: rgb(0, 0, 0);"><rect width="100" height="100"/></g></g><g transform="translate(385.19 385.19) scale(0.2963 0.2963)"><g style="fill: rgb(0, 0, 0);"><rect width="100" height="100"/></g></g><g transform="translate(444.45 385.19) scale(0.2963 0.2963)"><g style="fill: rgb(0, 0, 0);"><rect width="100" height="100"/></g></g><g transform="translate(474.08 385.19) scale(0.2963 0.2963)"><g style="fill: rgb(0, 0, 0);"><rect width="100" height="100"/></g></g><g transform="translate(592.6 385.19) scale(0.2963 0.2963)"><g style="fill: rgb(0, 0, 0);"><rect width="100" height="100"/></g></g><g transform="translate(681.49 385.19) scale(0.2963 0.2963)"><g style="fill: rgb(0, 0, 0);"><rect width="100" height="100"/></g></g><g transform="translate(0 414.82) scale(0.2963 0.2963)"><g style="fill: rgb(0, 0, 0);"><rect width="100" height="100"/></g></g><g transform="translate(29.63 414.82) scale(0.2963 0.2963)"><g style="fill: rgb(0, 0, 0);"><rect width="100" height="100"/></g></g><g transform="translate(59.26 414.82) scale(0.2963 0.2963)"><g style="fill: rgb(0, 0, 0);"><rect width="100" height="100"/></g></g><g transform="translate(118.52 414.82) scale(0.2963 0.2963)"><g style="fill: rgb(0, 0, 0);"><rect width="100" height="100"/></g></g><g transform="translate(177.78 414.82) scale(0.2963 0.2963)"><g style="fill: rgb(0, 0, 0);"><rect width="100" height="100"/></g></g><g transform="translate(237.04 414.82) scale(0.2963 0.2963)"><g style="fill: rgb(0, 0, 0);"><rect width="100" height="100"/></g></g><g transform="translate(296.3 414.82) scale(0.2963 0.2963)"><g style="fill: rgb(0, 0, 0);"><rect width="100" height="100"/></g></g><g transform="translate(385.19 414.82) scale(0.2963 0.2963)"><g style="fill: rgb(0, 0, 0);"><rect width="100" height="100"/></g></g><g transform="translate(414.82 414.82) scale(0.2963 0.2963)"><g style="fill: rgb(0, 0, 0);"><rect width="100" height="100"/></g></g><g transform="translate(444.45 414.82) scale(0.2963 0.2963)"><g style="fill: rgb(0, 0, 0);"><rect width="100" height="100"/></g></g><g transform="translate(503.71 414.82) scale(0.2963 0.2963)"><g style="fill: rgb(0, 0, 0);"><rect width="100" height="100"/></g></g><g transform="translate(592.6 414.82) scale(0.2963 0.2963)"><g style="fill: rgb(0, 0, 0);"><rect width="100" height="100"/></g></g><g transform="translate(622.23 414.82) scale(0.2963 0.2963)"><g style="fill: rgb(0, 0, 0);"><rect width="100" height="100"/></g></g><g transform="translate(651.86 414.82) scale(0.2963 0.2963)"><g style="fill: rgb(0, 0, 0);"><rect width="100" height="100"/></g></g><g transform="translate(681.49 414.82) scale(0.2963 0.2963)"><g style="fill: rgb(0, 0, 0);"><rect width="100" height="100"/></g></g><g transform="translate(711.12 414.82) scale(0.2963 0.2963)"><g style="fill: rgb(0, 0, 0);"><rect width="100" height="100"/></g></g><g transform="translate(0 444.45) scale(0.2963 0.2963)"><g style="fill: rgb(0, 0, 0);"><rect width="100" height="100"/></g></g><g transform="translate(88.89 444.45) scale(0.2963 0.2963)"><g style="fill: rgb(0, 0, 0);"><rect width="100" height="100"/></g></g><g transform="translate(118.52 444.45) scale(0.2963 0.2963)"><g style="fill: rgb(0, 0, 0);"><rect width="100" height="100"/></g></g><g transform="translate(296.3 444.45) scale(0.2963 0.2963)"><g style="fill: rgb(0, 0, 0);"><rect width="100" height="100"/></g></g><g transform="translate(325.93 444.45) scale(0.2963 0.2963)"><g style="fill: rgb(0, 0, 0);"><rect width="100" height="100"/></g></g><g transform="translate(355.56 444.45) scale(0.2963 0.2963)"><g style="fill: rgb(0, 0, 0);"><rect width="100" height="100"/></g></g><g transform="translate(414.82 444.45) scale(0.2963 0.2963)"><g style="fill: rgb(0, 0, 0);"><rect width="100" height="100"/></g></g><g transform="translate(444.45 444.45) scale(0.2963 0.2963)"><g style="fill: rgb(0, 0, 0);"><rect width="100" height="100"/></g></g><g transform="translate(474.08 444.45) scale(0.2963 0.2963)"><g style="fill: rgb(0, 0, 0);"><rect width="100" height="100"/></g></g><g transform="translate(562.97 444.45) scale(0.2963 0.2963)"><g style="fill: rgb(0, 0, 0);"><rect width="100" height="100"/></g></g><g transform="translate(592.6 444.45) scale(0.2963 0.2963)"><g style="fill: rgb(0, 0, 0);"><rect width="100" height="100"/></g></g><g transform="translate(651.86 444.45) scale(0.2963 0.2963)"><g style="fill: rgb(0, 0, 0);"><rect width="100" height="100"/></g></g><g transform="translate(711.12 444.45) scale(0.2963 0.2963)"><g style="fill: rgb(0, 0, 0);"><rect width="100" height="100"/></g></g><g transform="translate(0 474.08) scale(0.2963 0.2963)"><g style="fill: rgb(0, 0, 0);"><rect width="100" height="100"/></g></g><g transform="translate(177.78 474.08) scale(0.2963 0.2963)"><g style="fill: rgb(0, 0, 0);"><rect width="100" height="100"/></g></g><g transform="translate(207.41 474.08) scale(0.2963 0.2963)"><g style="fill: rgb(0, 0, 0);"><rect width="100" height="100"/></g></g><g transform="translate(296.3 474.08) scale(0.2963 0.2963)"><g style="fill: rgb(0, 0, 0);"><rect width="100" height="100"/></g></g><g transform="translate(325.93 474.08) scale(0.2963 0.2963)"><g style="fill: rgb(0, 0, 0);"><rect width="100" height="100"/></g></g><g transform="translate(355.56 474.08) scale(0.2963 0.2963)"><g style="fill: rgb(0, 0, 0);"><rect width="100" height="100"/></g></g><g transform="translate(385.19 474.08) scale(0.2963 0.2963)"><g style="fill: rgb(0, 0, 0);"><rect width="100" height="100"/></g></g><g transform="translate(444.45 474.08) scale(0.2963 0.2963)"><g style="fill: rgb(0, 0, 0);"><rect width="100" height="100"/></g></g><g transform="translate(474.08 474.08) scale(0.2963 0.2963)"><g style="fill: rgb(0, 0, 0);"><rect width="100" height="100"/></g></g><g transform="translate(503.71 474.08) scale(0.2963 0.2963)"><g style="fill: rgb(0, 0, 0);"><rect width="100" height="100"/></g></g><g transform="translate(533.34 474.08) scale(0.2963 0.2963)"><g style="fill: rgb(0, 0, 0);"><rect width="100" height="100"/></g></g><g transform="translate(562.97 474.08) scale(0.2963 0.2963)"><g style="fill: rgb(0, 0, 0);"><rect width="100" height="100"/></g></g><g transform="translate(592.6 474.08) scale(0.2963 0.2963)"><g style="fill: rgb(0, 0, 0);"><rect width="100" height="100"/></g></g><g transform="translate(651.86 474.08) scale(0.2963 0.2963)"><g style="fill: rgb(0, 0, 0);"><rect width="100" height="100"/></g></g><g transform="translate(681.49 474.08) scale(0.2963 0.2963)"><g style="fill: rgb(0, 0, 0);"><rect width="100" height="100"/></g></g><g transform="translate(237.04 503.71) scale(0.2963 0.2963)"><g style="fill: rgb(0, 0, 0);"><rect width="100" height="100"/></g></g><g transform="translate(296.3 503.71) scale(0.2963 0.2963)"><g style="fill: rgb(0, 0, 0);"><rect width="100" height="100"/></g></g><g transform="translate(385.19 503.71) scale(0.2963 0.2963)"><g style="fill: rgb(0, 0, 0);"><rect width="100" height="100"/></g></g><g transform="translate(474.08 503.71) scale(0.2963 0.2963)"><g style="fill: rgb(0, 0, 0);"><rect width="100" height="100"/></g></g><g transform="translate(592.6 503.71) scale(0.2963 0.2963)"><g style="fill: rgb(0, 0, 0);"><rect width="100" height="100"/></g></g><g transform="translate(681.49 503.71) scale(0.2963 0.2963)"><g style="fill: rgb(0, 0, 0);"><rect width="100" height="100"/></g></g><g transform="translate(266.67 533.34) scale(0.2963 0.2963)"><g style="fill: rgb(0, 0, 0);"><rect width="100" height="100"/></g></g><g transform="translate(325.93 533.34) scale(0.2963 0.2963)"><g style="fill: rgb(0, 0, 0);"><rect width="100" height="100"/></g></g><g transform="translate(355.56 533.34) scale(0.2963 0.2963)"><g style="fill: rgb(0, 0, 0);"><rect width="100" height="100"/></g></g><g transform="translate(474.08 533.34) scale(0.2963 0.2963)"><g style="fill: rgb(0, 0, 0);"><rect width="100" height="100"/></g></g><g transform="translate(533.34 533.34) scale(0.2963 0.2963)"><g style="fill: rgb(0, 0, 0);"><rect width="100" height="100"/></g></g><g transform="translate(592.6 533.34) scale(0.2963 0.2963)"><g style="fill: rgb(0, 0, 0);"><rect width="100" height="100"/></g></g><g transform="translate(622.23 533.34) scale(0.2963 0.2963)"><g style="fill: rgb(0, 0, 0);"><rect width="100" height="100"/></g></g><g transform="translate(711.12 533.34) scale(0.2963 0.2963)"><g style="fill: rgb(0, 0, 0);"><rect width="100" height="100"/></g></g><g transform="translate(266.67 562.97) scale(0.2963 0.2963)"><g style="fill: rgb(0, 0, 0);"><rect width="100" height="100"/></g></g><g transform="translate(325.93 562.97) scale(0.2963 0.2963)"><g style="fill: rgb(0, 0, 0);"><rect width="100" height="100"/></g></g><g transform="translate(385.19 562.97) scale(0.2963 0.2963)"><g style="fill: rgb(0, 0, 0);"><rect width="100" height="100"/></g></g><g transform="translate(444.45 562.97) scale(0.2963 0.2963)"><g style="fill: rgb(0, 0, 0);"><rect width="100" height="100"/></g></g><g transform="translate(474.08 562.97) scale(0.2963 0.2963)"><g style="fill: rgb(0, 0, 0);"><rect width="100" height="100"/></g></g><g transform="translate(592.6 562.97) scale(0.2963 0.2963)"><g style="fill: rgb(0, 0, 0);"><rect width="100" height="100"/></g></g><g transform="translate(711.12 562.97) scale(0.2963 0.2963)"><g style="fill: rgb(0, 0, 0);"><rect width="100" height="100"/></g></g><g transform="translate(237.04 592.6) scale(0.2963 0.2963)"><g style="fill: rgb(0, 0, 0);"><rect width="100" height="100"/></g></g><g transform="translate(325.93 592.6) scale(0.2963 0.2963)"><g style="fill: rgb(0, 0, 0);"><rect width="100" height="100"/></g></g><g transform="translate(355.56 592.6) scale(0.2963 0.2963)"><g style="fill: rgb(0, 0, 0);"><rect width="100" height="100"/></g></g><g transform="translate(414.82 592.6) scale(0.2963 0.2963)"><g style="fill: rgb(0, 0, 0);"><rect width="100" height="100"/></g></g><g transform="translate(444.45 592.6) scale(0.2963 0.2963)"><g style="fill: rgb(0, 0, 0);"><rect width="100" height="100"/></g></g><g transform="translate(474.08 592.6) scale(0.2963 0.2963)"><g style="fill: rgb(0, 0, 0);"><rect width="100" height="100"/></g></g><g transform="translate(503.71 592.6) scale(0.2963 0.2963)"><g style="fill: rgb(0, 0, 0);"><rect width="100" height="100"/></g></g><g transform="translate(533.34 592.6) scale(0.2963 0.2963)"><g style="fill: rgb(0, 0, 0);"><rect width="100" height="100"/></g></g><g transform="translate(562.97 592.6) scale(0.2963 0.2963)"><g style="fill: rgb(0, 0, 0);"><rect width="100" height="100"/></g></g><g transform="translate(592.6 592.6) scale(0.2963 0.2963)"><g style="fill: rgb(0, 0, 0);"><rect width="100" height="100"/></g></g><g transform="translate(622.23 592.6) scale(0.2963 0.2963)"><g style="fill: rgb(0, 0, 0);"><rect width="100" height="100"/></g></g><g transform="translate(681.49 592.6) scale(0.2963 0.2963)"><g style="fill: rgb(0, 0, 0);"><rect width="100" height="100"/></g></g><g transform="translate(237.04 622.23) scale(0.2963 0.2963)"><g style="fill: rgb(0, 0, 0);"><rect width="100" height="100"/></g></g><g transform="translate(296.3 622.23) scale(0.2963 0.2963)"><g style="fill: rgb(0, 0, 0);"><rect width="100" height="100"/></g></g><g transform="translate(325.93 622.23) scale(0.2963 0.2963)"><g style="fill: rgb(0, 0, 0);"><rect width="100" height="100"/></g></g><g transform="translate(355.56 622.23) scale(0.2963 0.2963)"><g style="fill: rgb(0, 0, 0);"><rect width="100" height="100"/></g></g><g transform="translate(444.45 622.23) scale(0.2963 0.2963)"><g style="fill: rgb(0, 0, 0);"><rect width="100" height="100"/></g></g><g transform="translate(474.08 622.23) scale(0.2963 0.2963)"><g style="fill: rgb(0, 0, 0);"><rect width="100" height="100"/></g></g><g transform="translate(503.71 622.23) scale(0.2963 0.2963)"><g style="fill: rgb(0, 0, 0);"><rect width="100" height="100"/></g></g><g transform="translate(533.34 622.23) scale(0.2963 0.2963)"><g style="fill: rgb(0, 0, 0);"><rect width="100" height="100"/></g></g><g transform="translate(562.97 622.23) scale(0.2963 0.2963)"><g style="fill: rgb(0, 0, 0);"><rect width="100" height="100"/></g></g><g transform="translate(622.23 622.23) scale(0.2963 0.2963)"><g style="fill: rgb(0, 0, 0);"><rect width="100" height="100"/></g></g><g transform="translate(681.49 622.23) scale(0.2963 0.2963)"><g style="fill: rgb(0, 0, 0);"><rect width="100" height="100"/></g></g><g transform="translate(711.12 622.23) scale(0.2963 0.2963)"><g style="fill: rgb(0, 0, 0);"><rect width="100" height="100"/></g></g><g transform="translate(266.67 651.86) scale(0.2963 0.2963)"><g style="fill: rgb(0, 0, 0);"><rect width="100" height="100"/></g></g><g transform="translate(325.93 651.86) scale(0.2963 0.2963)"><g style="fill: rgb(0, 0, 0);"><rect width="100" height="100"/></g></g><g transform="translate(355.56 651.86) scale(0.2963 0.2963)"><g style="fill: rgb(0, 0, 0);"><rect width="100" height="100"/></g></g><g transform="translate(385.19 651.86) scale(0.2963 0.2963)"><g style="fill: rgb(0, 0, 0);"><rect width="100" height="100"/></g></g><g transform="translate(444.45 651.86) scale(0.2963 0.2963)"><g style="fill: rgb(0, 0, 0);"><rect width="100" height="100"/></g></g><g transform="translate(474.08 651.86) scale(0.2963 0.2963)"><g style="fill: rgb(0, 0, 0);"><rect width="100" height="100"/></g></g><g transform="translate(503.71 651.86) scale(0.2963 0.2963)"><g style="fill: rgb(0, 0, 0);"><rect width="100" height="100"/></g></g><g transform="translate(562.97 651.86) scale(0.2963 0.2963)"><g style="fill: rgb(0, 0, 0);"><rect width="100" height="100"/></g></g><g transform="translate(592.6 651.86) scale(0.2963 0.2963)"><g style="fill: rgb(0, 0, 0);"><rect width="100" height="100"/></g></g><g transform="translate(651.86 651.86) scale(0.2963 0.2963)"><g style="fill: rgb(0, 0, 0);"><rect width="100" height="100"/></g></g><g transform="translate(681.49 651.86) scale(0.2963 0.2963)"><g style="fill: rgb(0, 0, 0);"><rect width="100" height="100"/></g></g><g transform="translate(711.12 651.86) scale(0.2963 0.2963)"><g style="fill: rgb(0, 0, 0);"><rect width="100" height="100"/></g></g><g transform="translate(237.04 681.49) scale(0.2963 0.2963)"><g style="fill: rgb(0, 0, 0);"><rect width="100" height="100"/></g></g><g transform="translate(266.67 681.49) scale(0.2963 0.2963)"><g style="fill: rgb(0, 0, 0);"><rect width="100" height="100"/></g></g><g transform="translate(296.3 681.49) scale(0.2963 0.2963)"><g style="fill: rgb(0, 0, 0);"><rect width="100" height="100"/></g></g><g transform="translate(414.82 681.49) scale(0.2963 0.2963)"><g style="fill: rgb(0, 0, 0);"><rect width="100" height="100"/></g></g><g transform="translate(562.97 681.49) scale(0.2963 0.2963)"><g style="fill: rgb(0, 0, 0);"><rect width="100" height="100"/></g></g><g transform="translate(592.6 681.49) scale(0.2963 0.2963)"><g style="fill: rgb(0, 0, 0);"><rect width="100" height="100"/></g></g><g transform="translate(651.86 681.49) scale(0.2963 0.2963)"><g style="fill: rgb(0, 0, 0);"><rect width="100" height="100"/></g></g><g transform="translate(681.49 681.49) scale(0.2963 0.2963)"><g style="fill: rgb(0, 0, 0);"><rect width="100" height="100"/></g></g><g transform="translate(711.12 681.49) scale(0.2963 0.2963)"><g style="fill: rgb(0, 0, 0);"><rect width="100" height="100"/></g></g><g transform="translate(237.04 711.12) scale(0.2963 0.2963)"><g style="fill: rgb(0, 0, 0);"><rect width="100" height="100"/></g></g><g transform="translate(296.3 711.12) scale(0.2963 0.2963)"><g style="fill: rgb(0, 0, 0);"><rect width="100" height="100"/></g></g><g transform="translate(355.56 711.12) scale(0.2963 0.2963)"><g style="fill: rgb(0, 0, 0);"><rect width="100" height="100"/></g></g><g transform="translate(474.08 711.12) scale(0.2963 0.2963)"><g style="fill: rgb(0, 0, 0);"><rect width="100" height="100"/></g></g><g transform="translate(533.34 711.12) scale(0.2963 0.2963)"><g style="fill: rgb(0, 0, 0);"><rect width="100" height="100"/></g></g><g transform="translate(622.23 711.12) scale(0.2963 0.2963)"><g style="fill: rgb(0, 0, 0);"><rect width="100" height="100"/></g></g><g transform="translate(711.12 711.12) scale(0.2963 0.2963)"><g style="fill: rgb(0, 0, 0);"><rect width="100" height="100"/></g></g><g transform="translate(0 0) scale(2.0741 2.0741)"><g style="fill: rgb(0, 0, 0);"><path d="M85,0H15H0v15v70v15h15h70h15V85V15V0H85z M85,85H15V15h70V85z"/></g></g><g transform="translate(59.26 59.26) scale(0.8889 0.8889)"><g style="fill: rgb(0, 0, 0);"><rect width="100" height="100"/></g></g><g transform="translate(533.34 0) scale(2.0741 2.0741)"><g style="fill: rgb(0, 0, 0);"><path d="M85,0H15H0v15v70v15h15h70h15V85V15V0H85z M85,85H15V15h70V85z"/></g></g><g transform="translate(592.6 59.26) scale(0.8889 0.8889)"><g style="fill: rgb(0, 0, 0);"><rect width="100" height="100"/></g></g><g transform="translate(0 533.34) scale(2.0741 2.0741)"><g style="fill: rgb(0, 0, 0);"><path d="M85,0H15H0v15v70v15h15h70h15V85V15V0H85z M85,85H15V15h70V85z"/></g></g><g transform="translate(59.26 592.6) scale(0.8889 0.8889)"><g style="fill: rgb(0, 0, 0);"><rect width="100" height="100"/></g></g></g></svg>